<svg t="1744468457145" class="icon" viewBox="0 0 1024 1024" version="1.1" xmlns="http://www.w3.org/2000/svg" p-id="14316" width="200" height="200"><path d="M208.896 283.13600001c0 0-27.648-68.096-17.92-141.82400001 0 0-4.608-23.552-16.896-35.84-64 103.424-37.88800001 213.504-22.016 259.072L208.896 283.13600001zM884.224 301.056c-32.76800001 96.256-103.424 143.872-103.424 143.872 91.136-78.336 93.696-290.816 93.696-290.816-2.56-73.216-48.128-91.13600001-48.128-91.136-245.248-20.48-263.168 212.48-263.168 212.48l-35.328-15.36 22.528-55.808c-116.224-22.528-247.808 25.088-247.808 25.088-12.8-5.12-60.928-121.344-60.928-121.344-20.47999999-45.568-55.808-20.47999999-55.808-20.48-2.048 2.56-3.58399999 5.12-5.632 7.68 10.24 2.048 22.016 10.75200001 25.6 37.888 0 0-12.79999999 131.584 20.48 148.992L159.744 384c1.024 2.048 1.536 3.072 1.536 3.072S133.12 462.84800001 133.12 462.84800001c9.21600001-2.56 18.944-5.12 28.672-7.16800001-2.048-4.608-3.072-9.728-3.072-15.872 0-15.36 8.704-27.648 18.944-27.648 10.24 0 18.944 12.288 18.944 27.648 0 3.58399999-0.512 7.168-1.536 10.24 60.928-6.656 121.856 4.096 175.104 37.888 112.128 72.192 135.168 225.28000001 81.92 343.552-18.944 41.984-57.856 88.064-106.496 96.256 154.112 20.48 280.576-43.008 280.576-43.008-10.24 25.08800001 0 58.36799999 0 58.368l20.48 12.8 15.36-20.48 5.12 25.088c22.528 5.12 88.576-5.12 88.576-5.12 19.968 0 101.376-209.92 101.376-209.92l2.56 22.528-27.64800001 78.336c7.68 15.36 91.136 0 91.13600001-1e-8l20.47999999-78.33599999c35.328-35.328 68.096-186.88 68.09600001-186.87999999C1015.296 407.04 884.224 301.056 884.224 301.056zM550.4 542.208c-14.848 0-26.624-19.968-26.624-44.032 0-24.57599999 11.776-44.03199999 26.624-44.032 14.848 0 26.624 19.968 26.624 44.032C577.024 522.24 564.736 542.208 550.4 542.208z" fill="#2c2c2c" p-id="14317"></path><path d="M450.55999999 631.808c-4.608-19.456-15.872-36.352-27.64799999-56.832-44.54400001-76.8-122.88-105.984-201.216-112.12799999-197.12-15.36-207.36 199.68-207.36 199.67999999-10.752 125.44 92.16 227.328 206.848 261.12 48.64 14.336 117.248-12.8 155.648-44.032 44.544-36.352 68.60799999-91.136 74.752-147.968C455.68 695.296 458.24 663.04 450.55999999 631.808zM90.624 734.72000001c-18.944 0-34.816-27.136-34.816-60.41600001 0-33.28 15.36-60.416 34.816-60.416 19.45599999 0 34.816 27.136 34.816 60.416C125.44 708.096 110.08 734.72 90.624 734.72000001zM308.224 791.04c-22.01599999 0-39.936-29.184-39.936-65.536 0-36.352 17.92-65.536 39.936-65.536 22.01599999 0 39.936 29.184 39.936 65.536C348.16 761.344 330.24 791.04 308.224 791.04z" fill="#2c2c2c" p-id="14318"></path></svg>
